# xmcd CD database file generated by Grip 2.7
# 
# Track frame offsets:
#       180
#       3885
#       21187
#       40557
#       57870
#       75410
#       95642
#       117147
#       133760
#       163357
#       183340
# 
# Disc length: 2663 seconds
# 
# Revision: 3
# Processed by: cddbd v1.4b41PL1 Copyright (c) Steve Scherf et al.
# Submitted via: Grip 2.7
# 
DISCID=810a650b
DTITLE=Teri Moïse - Teri Moïse
DYEAR=1900
DGENRE=
TTITLE0=Intro
TTITLE1=Il sait
TTITLE2=Star
TTITLE3=Encore Fou
TTITLE4=L'air du temps
TTITLE5=Une place pour elle
TTITLE6=C'est ansi
TTITLE7=Maudit soit cet amour
TTITLE8=Déjà
TTITLE9=Toi... Je
TTITLE10=Fais semblant
EXTD=
EXTT0=
EXTT1=
EXTT2=
EXTT3=
EXTT4=
EXTT5=
EXTT6=
EXTT7=
EXTT8=
EXTT9=
EXTT10=
PLAYORDER=
